{
    "asset" : {
        "generator" : "Khronos glTF Blender I/O v1.6.16",
        "version" : "2.0"
    },
    "scene" : 0,
    "scenes" : [
        {
            "name" : "Scene",
            "nodes" : [
                0
            ]
        }
    ],
    "nodes" : [
        {
            "mesh" : 0,
            "name" : "arrow",
            "rotation" : [
                -0.7071068286895752,
                0,
                0,
                0.7071068286895752
            ]
        }
    ],
    "materials" : [
        {
            "doubleSided" : true,
            "name" : "arrow",
            "pbrMetallicRoughness" : {
                "baseColorFactor" : [
                    0.08353142440319061,
                    0.08353142440319061,
                    0.08353142440319061,
                    1
                ],
                "metallicFactor" : 0,
                "roughnessFactor" : 0.5
            }
        }
    ],
    "meshes" : [
        {
            "name" : "Circle.002",
            "primitives" : [
                {
                    "attributes" : {
                        "POSITION" : 0,
                        "NORMAL" : 1,
                        "TEXCOORD_0" : 2
                    },
                    "indices" : 3,
                    "material" : 0
                }
            ]
        }
    ],
    "accessors" : [
        {
            "bufferView" : 0,
            "componentType" : 5126,
            "count" : 412,
            "max" : [
                0.12932062149047852,
                0.21115098893642426,
                0.005000017583370209
            ],
            "min" : [
                -0.17067861557006836,
                -0.13493479788303375,
                -0.004999972879886627
            ],
            "type" : "VEC3"
        },
        {
            "bufferView" : 1,
            "componentType" : 5126,
            "count" : 412,
            "type" : "VEC3"
        },
        {
            "bufferView" : 2,
            "componentType" : 5126,
            "count" : 412,
            "type" : "VEC2"
        },
        {
            "bufferView" : 3,
            "componentType" : 5123,
            "count" : 624,
            "type" : "SCALAR"
        }
    ],
    "bufferViews" : [
        {
            "buffer" : 0,
            "byteLength" : 4944,
            "byteOffset" : 0
        },
        {
            "buffer" : 0,
            "byteLength" : 4944,
            "byteOffset" : 4944
        },
        {
            "buffer" : 0,
            "byteLength" : 3296,
            "byteOffset" : 9888
        },
        {
            "buffer" : 0,
            "byteLength" : 1248,
            "byteOffset" : 13184
        }
    ],
    "buffers" : [
        {
            "byteLength" : 14432,
            "uri" : "data:application/octet-stream;base64,"
        }
    ]
}
